<svg width="136" height="36" viewBox="0 0 136 36" fill="none" xmlns="http://www.w3.org/2000/svg">
<path d="M43.3916 8.51856H40.669C40.669 7.16505 39.8833 6.3794 38.4054 6.3794C37.2191 6.3794 36.414 6.9628 36.414 7.80291C36.414 8.80637 37.1997 9.13697 39.2455 9.64648C41.6919 10.2493 43.8116 10.8872 43.8116 13.7187C43.8116 16.1845 41.7658 17.8297 38.7321 17.8297C35.5 17.8297 33.4697 16.2234 33.4697 13.2636H36.2468C36.2468 14.8349 37.1063 15.6556 38.7671 15.6556C40.1361 15.6556 41.0151 15.0177 41.0151 13.9948C41.0151 12.8436 40.175 12.6258 38.3315 12.1512C35.885 11.5289 33.6564 10.9455 33.6564 8.09462C33.6564 5.81155 35.6128 4.24023 38.4598 4.24023C41.7113 4.24023 43.3916 5.7182 43.3916 8.51467V8.51856Z" fill="#001CA8"/>
<path d="M48.1621 14.3641L47.1392 17.5418H44.3271L48.8388 4.53564H52.456L56.9677 17.5418H54.1556L53.1522 14.3641H48.166H48.1621ZM52.1448 11.2021C51.6158 9.52184 51.1025 7.80273 50.6668 6.12251H50.6318C50.1923 7.80273 49.7023 9.52184 49.1694 11.2021L48.8972 12.0616H52.421L52.1448 11.2021Z" fill="#001CA8"/>
<path d="M70.6503 17.5418V11.0737C70.6503 9.44794 70.6853 7.82218 70.7592 6.19641H70.7242C70.3042 7.78717 69.8297 9.41293 69.3357 10.9842L67.2704 17.5418H64.2017L62.1364 10.9842C61.6425 9.41293 61.168 7.78717 60.7479 6.19641H60.709C60.7829 7.82218 60.8179 9.44794 60.8179 11.0737V17.5418H58.2432V4.53564H62.5526L64.4351 10.5097C64.929 12.0811 65.3646 13.7068 65.7147 15.2976H65.7497C66.0958 13.7068 66.5353 12.0811 67.0293 10.5097L68.9117 4.53564H73.2251V17.5418H70.6503Z" fill="#001CA8"/>
<path d="M88.7148 17.5418V11.0737C88.7148 9.44794 88.7498 7.82218 88.8237 6.19641H88.7887C88.3686 7.78717 87.8941 9.41293 87.4002 10.9842L85.3349 17.5418H82.2662L80.2009 10.9842C79.7069 9.41293 79.2324 7.78717 78.8124 6.19641H78.7735C78.8474 7.82218 78.8824 9.44794 78.8824 11.0737V17.5418H76.3076V4.53564H80.6171L82.4995 10.5097C82.9935 12.0811 83.4291 13.7068 83.7791 15.2976H83.8141C84.1603 13.7068 84.5998 12.0811 85.0938 10.5097L86.9762 4.53564H91.2895V17.5418H88.7148Z" fill="#001CA8"/>
<path d="M96.7763 14.3641L95.7534 17.5418H92.9414L97.4531 4.53564H101.07L105.582 17.5418H102.77L101.766 14.3641H96.7802H96.7763ZM100.759 11.2021C100.23 9.52184 99.7167 7.80273 99.2811 6.12251H99.2461C98.8066 7.80273 98.3165 9.52184 97.7837 11.2021L97.5114 12.0616H101.035L100.759 11.2021Z" fill="#001CA8"/>
<path d="M110.35 14.3641L109.327 17.5418H106.515L111.026 4.53564H114.643L119.155 17.5418H116.343L115.34 14.3641H110.353H110.35ZM114.332 11.2021C113.803 9.52184 113.29 7.80273 112.854 6.12251H112.819C112.38 7.80273 111.89 9.52184 111.357 11.2021L111.085 12.0616H114.608L114.332 11.2021Z" fill="#001CA8"/>
<path d="M127.796 17.5418L125.276 12.2639C124.451 10.5292 123.631 8.70118 122.899 6.89261H122.864C122.958 8.77508 123.012 10.6536 123.012 12.5361V17.5418H120.438V4.53564H124.257L126.777 9.81354C127.598 11.5482 128.422 13.3762 129.154 15.1848H129.193C129.099 13.3023 129.045 11.4237 129.045 9.54128V4.53564H131.619V17.5418H127.8H127.796Z" fill="#001CA8"/>
<path d="M42.7975 24.0136H40.5727C40.4366 22.7651 39.612 22.0145 38.3635 22.0145C36.7417 22.0145 35.7499 23.3952 35.7499 25.6511C35.7499 27.9069 36.7261 29.2876 38.3169 29.2876C39.577 29.2876 40.4055 28.5525 40.5688 27.2457H42.8363C42.6263 29.7855 40.9305 31.2401 38.3169 31.2401C35.3143 31.2401 33.4668 29.1204 33.4668 25.6511C33.4668 22.1817 35.3298 20.062 38.3635 20.062C41.0083 20.062 42.6885 21.6839 42.7936 24.0136H42.7975Z" fill="#F32737"/>
<path d="M48.1894 28.3849L47.3493 30.9985H45.0352L48.7456 20.3027H51.721L55.4315 30.9985H53.1173L52.2927 28.3849H48.1933H48.1894ZM51.4643 25.7829C51.0287 24.4021 50.6086 22.9903 50.2469 21.6057H50.2158C49.8541 22.9864 49.4496 24.3983 49.014 25.7829L48.7884 26.4907H51.686L51.4604 25.7829H51.4643Z" fill="#F32737"/>
<path d="M62.3692 20.3032C64.9673 20.3032 66.2897 21.6839 66.2897 23.757C66.2897 25.83 64.9673 27.2108 62.3692 27.2108H60.5373V30.9951H58.3281V20.2993H62.3692V20.3032ZM60.5373 25.3789H62.0697C63.466 25.3789 64.0377 24.7643 64.0377 23.757C64.0377 22.7496 63.466 22.1351 62.0697 22.1351H60.5373V25.3789Z" fill="#F32737"/>
<path d="M69.8057 30.9985V20.3027H72.0148V30.9985H69.8057Z" fill="#F32737"/>
<path d="M80.7083 22.1969V30.9985H78.4991V22.1969H75.1348V20.3027H84.0726V22.1969H80.7083Z" fill="#F32737"/>
<path d="M88.086 28.3849L87.2458 30.9985H84.9316L88.6421 20.3027H91.6175L95.328 30.9985H93.0138L92.1892 28.3849H88.0898H88.086ZM91.3608 25.7829C90.9252 24.4021 90.5051 22.9903 90.1434 21.6057H90.1123C89.7506 22.9864 89.3461 24.3983 88.9105 25.7829L88.6849 26.4907H91.5825L91.3569 25.7829H91.3608Z" fill="#F32737"/>
<path d="M105.478 29.1044V30.9985H98.2246V20.3027H100.434V29.1044H105.482H105.478Z" fill="#F32737"/>
<path d="M30.7401 4.52002H9.54297V25.7172H30.7401V4.52002Z" fill="#001CA8"/>
<path d="M4.24023 9.8208V27.2725L19.226 12.2828L22.9754 16.0322L7.98572 31.018H25.4374V9.8208H4.24023Z" fill="#F32737"/>
<path d="M19.226 12.2827L4.24023 27.2724V31.0179H7.98572L22.9754 16.0321L19.226 12.2827Z" fill="white"/>
<path d="M25.4359 25.7167H20.1347V14.7875H9.53613V9.8208H25.4359V25.7167Z" fill="white"/>
</svg>
